<svg xmlns="http://www.w3.org/2000/svg" viewBox="0 0 980 560" font-family="'Malgun Gothic','Apple SD Gothic Neo','Noto Sans KR',sans-serif">
  <rect width="980" height="560" fill="#ffffff"/>
  <text x="30" y="40" font-size="18" font-weight="700" fill="#1a1a2e">서비스 구성</text>

  <defs>
    <marker id="b" viewBox="0 0 10 10" refX="9" refY="5" markerWidth="7" markerHeight="7" orient="auto-start-reverse">
      <path d="M0,0 L10,5 L0,10 z" fill="#64748b"/>
    </marker>
  </defs>

  <!-- 기자 브라우저 -->
  <rect x="30" y="180" width="180" height="96" rx="10" fill="#eff6ff" stroke="#2563eb" stroke-width="1.5"/>
  <text x="120" y="246" text-anchor="middle" font-size="14" font-weight="700" fill="#1a1a2e">기자 브라우저</text>
  <text x="120" y="265" text-anchor="middle" font-size="12" fill="#475569">⚛️ React SPA</text>

  <!-- EC2 외곽 -->
  <rect x="280" y="80" width="430" height="410" rx="12" fill="#f8fafc" stroke="#94a3b8" stroke-width="1.5" stroke-dasharray="6 4"/>
  <text x="300" y="110" font-size="14" font-weight="700" fill="#334155">☁️ AWS EC2 · 🐳 Docker Compose</text>

  <!-- nginx -->
  <rect x="310" y="130" width="180" height="96" rx="10" fill="#ecfdf5" stroke="#059669" stroke-width="1.5"/>
  <text x="400" y="196" text-anchor="middle" font-size="14" font-weight="700" fill="#1a1a2e">nginx</text>
  <text x="400" y="215" text-anchor="middle" font-size="12" fill="#475569">정적 서빙 · TLS</text>

  <!-- certbot -->
  <rect x="530" y="130" width="150" height="96" rx="10" fill="#f1f5f9" stroke="#94a3b8" stroke-width="1.5"/>
  <text x="605" y="196" text-anchor="middle" font-size="13" font-weight="700" fill="#1a1a2e">certbot</text>
  <text x="605" y="215" text-anchor="middle" font-size="12" fill="#475569">인증서 자동 갱신</text>

  <!-- api -->
  <rect x="310" y="270" width="180" height="96" rx="10" fill="#ecfdf5" stroke="#059669" stroke-width="1.5"/>
  <text x="400" y="336" text-anchor="middle" font-size="14" font-weight="700" fill="#1a1a2e">FastAPI</text>
  <text x="400" y="355" text-anchor="middle" font-size="12" fill="#475569">API + 비평 생성</text>

  <!-- db -->
  <rect x="530" y="270" width="150" height="96" rx="10" fill="#ecfdf5" stroke="#059669" stroke-width="1.5"/>
  <text x="605" y="336" text-anchor="middle" font-size="13" font-weight="700" fill="#1a1a2e">PostgreSQL</text>

  <!-- monitoring -->
  <rect x="310" y="405" width="370" height="56" rx="10" fill="#f1f5f9" stroke="#94a3b8" stroke-width="1.5"/>
  <text x="380" y="438" font-size="13" font-weight="700" fill="#1a1a2e">Prometheus · Grafana</text>
  <text x="545" y="438" font-size="12" fill="#475569">— SSH 터널 전용</text>

  <!-- 외부 API -->
  <rect x="760" y="130" width="190" height="96" rx="10" fill="#fff7ed" stroke="#ea580c" stroke-width="1.5"/>
  <text x="855" y="196" text-anchor="middle" font-size="13" font-weight="700" fill="#1a1a2e">네이버 검색 API</text>
  <text x="855" y="215" text-anchor="middle" font-size="12" fill="#475569">통과 조회 · 저장 없음</text>

  <rect x="760" y="290" width="190" height="96" rx="10" fill="#fff7ed" stroke="#ea580c" stroke-width="1.5"/>
  <text x="855" y="356" text-anchor="middle" font-size="13" font-weight="700" fill="#1a1a2e">DeepSeek API</text>
  <text x="855" y="375" text-anchor="middle" font-size="12" fill="#475569">입력은 기자 발췌뿐</text>

  <!-- 배포 -->
  <rect x="30" y="380" width="180" height="96" rx="10" fill="#f1f5f9" stroke="#94a3b8" stroke-width="1.5"/>
  <text x="120" y="446" text-anchor="middle" font-size="13" font-weight="700" fill="#1a1a2e">GitHub Actions</text>
  <text x="120" y="465" text-anchor="middle" font-size="12" fill="#475569">수동 승인 배포</text>

  <!-- 화살표 -->
  <g stroke="#64748b" stroke-width="1.6" fill="none" marker-end="url(#b)">
    <line x1="210" y1="220" x2="306" y2="195"/>
    <line x1="400" y1="226" x2="400" y2="266"/>
    <line x1="490" y1="318" x2="526" y2="318"/>
    <line x1="530" y1="178" x2="494" y2="178"/>
    <line x1="430" y1="405" x2="410" y2="370"/>
    <path d="M 490 292 C 600 240 680 195 756 178"/>
    <path d="M 490 350 C 590 400 680 385 756 345"/>
    <line x1="210" y1="425" x2="276" y2="432"/>
  </g>
  <g font-size="11.5" fill="#64748b">
    <text x="218" y="198">HTTPS</text>
    <text x="410" y="252">/api</text>
    <text x="688" y="166">통과 조회</text>
    <text x="588" y="398">초안 생성</text>
    <text x="222" y="452">배포</text>
    <text x="345" y="390">지표 수집</text>
  </g>

  <g font-size="26" text-anchor="middle">
    <text x="120" y="222">🧑‍💻</text>
    <text x="400" y="172">🛡️</text>
    <text x="605" y="172">🔒</text>
    <text x="400" y="312">⚡</text>
    <text x="605" y="312">🐘</text>
    <text x="345" y="442">📈</text>
    <text x="855" y="172">🔍</text>
    <text x="855" y="332">🤖</text>
    <text x="120" y="422">🚀</text>
  </g>
</svg>
